HIERARCHY
ROOT pelvis
{
  OFFSET 0 100 0
  CHANNELS 6 Xposition Yposition Zposition Zrotation Xrotation Yrotation
  JOINT pelvis_right_femur
  {
    OFFSET -10.78128 -3.44521 -0.5502486
    CHANNELS 3 Zrotation Xrotation Yrotation
    JOINT right_femur_tibia
    {
      OFFSET -0.8047443 -44.0398 -0.1307829
      CHANNELS 3 Zrotation Xrotation Yrotation
      JOINT right_tibia_foot
      {
        OFFSET 3.006224 -47.83518 -5
        CHANNELS 3 Zrotation Xrotation Yrotation
        End Site
        {
          OFFSET 0 -5 15
        }
      }
    }
  }
  JOINT pelvis_left_femur
  {
    OFFSET 10.78128 -3.44521 -0.5502486
    CHANNELS 3 Zrotation Xrotation Yrotation
    JOINT left_femur_tibia
    {
      OFFSET 0.8047443 -44.0398 -0.1307829
      CHANNELS 3 Zrotation Xrotation Yrotation
      JOINT left_tibia_foot
      {
        OFFSET -4.370144 -48.10324 -4.275266
        CHANNELS 3 Zrotation Xrotation Yrotation
        End Site
        {
          OFFSET 0 -5 15
        }
      }
    }
  }
  JOINT pelvis_spine1
  {
    OFFSET 0 6.468898 -3.129235
    CHANNELS 3 Zrotation Xrotation Yrotation
    JOINT spine1
    {
      OFFSET 0 23.15396 4.99043
      CHANNELS 3 Zrotation Xrotation Yrotation
      JOINT spine2
      {
        OFFSET 0 20.79997 -5.064912
        CHANNELS 3 Zrotation Xrotation Yrotation
        JOINT neck
        {
          OFFSET 0 14.38658 9.616178
          CHANNELS 3 Zrotation Xrotation Yrotation
          End Site
          {
            OFFSET 0 20 0
          }
        }
      }
      JOINT right_manubrium
      {
        OFFSET -5.722621 16.35077 3.967754
        CHANNELS 3 Zrotation Xrotation Yrotation
        JOINT right_clavicle
        {
          OFFSET -13.16364 1.694482 -4.693211
          CHANNELS 3 Zrotation Xrotation Yrotation
          JOINT right_humerus
          {
            OFFSET -28.5034 -0.3100689 -2.792744
            CHANNELS 3 Zrotation Xrotation Yrotation
            JOINT right_radius
            {
              OFFSET -25.15693 0.02248979 -1.271978
              CHANNELS 3 Zrotation Xrotation Yrotation
              End Site
              {
                OFFSET -15 0 0
              }
            }
          }
        }
      }
      JOINT left_manubrium
      {
        OFFSET 5.722621 16.35077 3.967754
        CHANNELS 3 Zrotation Xrotation Yrotation
        JOINT left_clavicle
        {
          OFFSET 13.16364 1.694482 -4.693211
          CHANNELS 3 Zrotation Xrotation Yrotation
          JOINT left_humerus
          {
            OFFSET 29.39168 -1.063119 -2.237045
            CHANNELS 3 Zrotation Xrotation Yrotation
            JOINT left_radius
            {
              OFFSET 24.59957 -0.9528479 0.9047498
              CHANNELS 3 Zrotation Xrotation Yrotation
              End Site
              {
                OFFSET 15 -0 -0
              }
            }
          }
        }
      }
    }
  }
}
MOTION
Frames: 23
Frame Time: 0.0416666666667
0 103.5113 0 2.180023 -1.218505 0.2932235 1.252154 -10.03976 8.76864 -0 34.88549 -0 -5.274269 -18.01392 -2.442799 -8.032686 10.09456 -23.51754 -0 5.125672 -0 7.699225 -16.12862 26.59335 -4.327117 -5.062104 4.933661 2.001773 9.219821 -7.752028 0.8325421 22.83849 7.170609 3.237599 -23.09966 8.815885 6.378394 -19.76846 11.57323 86.30726 35.94543 -19.77651 -0 0 16.27268 -7.576961 8.239993 4.618413 5.478401 -19.48112 -1.687056 -94.80675 29.74195 22.98433 0 0 -15.91669 3.486509 17.91329 9.572477
0.3233544 103.5579 1.339584 2.013197 -1.119012 0.490033 1.546873 -11.00748 8.694035 -0 34.88077 -0 -5.328861 -17.69082 -2.503847 -7.86447 10.21884 -23.39879 -0 5.155398 -0 7.585525 -16.36519 26.44456 -4.249835 -4.873886 4.849986 2.084111 9.189238 -7.788402 0.8511361 22.76421 7.181809 3.24279 -23.23817 8.854861 6.376221 -19.73669 11.57478 86.26712 35.92084 -19.79197 -0 0 16.20141 -7.620677 8.26719 4.640492 5.541541 -19.52811 -1.671342 -94.74203 29.68583 22.90002 0 0 -16.11493 3.531799 17.84202 9.549807
0.6584153 103.5389 2.786216 1.770509 -0.901594 0.5722851 1.936371 -12.49174 8.464723 -0 33.60801 -0 -5.378789 -17.06148 -2.277689 -7.624347 10.34955 -23.15463 -0 5.236537 -0 7.387096 -16.74819 26.19429 -4.176147 -4.589468 4.790009 2.26059 9.11876 -7.811448 0.9029552 22.59854 7.188467 3.275386 -23.45746 8.902734 6.354521 -19.66245 11.58689 86.1959 35.88081 -19.83903 -0 0 16.0617 -7.692224 8.310636 4.666023 5.711496 -19.61086 -1.635717 -94.62124 29.5942 22.65853 0 0 -16.56953 3.632077 17.73829 9.459719
1.02007 103.393 4.418047 1.495754 -0.5073891 0.4956039 2.315605 -14.40045 8.013965 -0 30.32835 -0 -5.393885 -15.96726 -1.626074 -7.384203 10.46062 -22.74113 -0 5.42125 -0 7.096418 -17.30587 25.81354 -4.136451 -4.240483 4.818161 2.526337 9.000205 -7.769983 1.022376 22.32055 7.173045 3.356449 -23.74742 8.959901 6.276125 -19.48808 11.61008 86.12651 35.82112 -19.95988 -0 0 15.82729 -7.792196 8.373447 4.69104 6.01848 -19.75178 -1.560344 -94.42621 29.47202 22.19215 0 0 -17.35295 3.791667 17.60564 9.270234
1.421638 103.0553 6.272162 1.274254 0.03845005 0.3179144 2.540107 -16.48841 7.386804 -0 25.0698 -0 -5.369284 -14.34319 -0.5943178 -7.237266 10.58431 -22.15841 -0 5.771428 -0 6.716952 -18.03426 25.25088 -4.136067 -3.91527 4.954644 2.81768 8.859848 -7.632129 1.192412 21.99627 7.129906 3.471532 -24.02686 9.007353 6.132759 -19.20733 11.64316 86.09886 35.7445 -20.15298 -0 0 15.4957 -7.915309 8.458575 4.716757 6.436916 -19.97276 -1.439206 -94.13047 29.33552 21.50533 0 0 -18.38258 3.975763 17.44403 9.00766
1.867649 102.4967 8.384996 1.167303 0.7104982 0.1079412 2.563015 -18.48808 6.5924 -0 18.29087 -0 -5.321526 -12.34405 0.6634423 -7.221454 10.75837 -21.4146 -0 6.331221 -0 6.22501 -18.87663 24.45133 -4.178835 -3.688505 5.11825 3.050153 8.718894 -7.470104 1.348853 21.71253 7.092064 3.591686 -24.21599 9.030327 5.931317 -18.87937 11.63259 86.16424 35.66105 -20.39302 -0 0 15.08106 -8.049427 8.572473 4.750536 6.902265 -20.24804 -1.287237 -93.73207 29.18752 20.68841 0 0 -19.46603 4.150119 17.25506 8.741623
2.351136 101.7349 10.82888 1.163906 1.469985 -0.06050362 2.453743 -20.14986 5.650381 -0 10.81289 -0 -5.289409 -10.29027 1.959581 -7.306603 11.0105 -20.5213 -0 7.184768 -0 5.563772 -19.72824 23.37993 -4.227121 -3.591024 5.218025 3.180416 8.587722 -7.368956 1.438275 21.51834 7.09292 3.693118 -24.27809 9.024434 5.696458 -18.53344 11.54537 86.36951 35.57792 -20.68343 -0 0 14.59136 -8.183182 8.724479 4.799507 7.324157 -20.53967 -1.147162 -93.25744 29.03003 19.85236 0 0 -20.39708 4.282643 17.03857 8.541095
2.852598 100.8333 13.70958 1.178591 2.252514 -0.06668478 2.36112 -21.23046 4.651272 -0 3.79233 -0 -5.335241 -8.563213 3.107633 -7.392018 11.34781 -19.49529 -0 8.499675 -0 4.644615 -20.41823 22.01413 -4.190432 -3.61321 5.200329 3.224087 8.463565 -7.378483 1.443892 21.4049 7.141255 3.763973 -24.23169 8.989376 5.473759 -18.14543 11.40247 86.73343 35.49702 -21.05841 -0 0 14.02176 -8.313975 8.924423 4.868154 7.591241 -20.80885 -1.077203 -92.75809 28.86566 19.10529 0 0 -20.99342 4.343616 16.78887 8.453154
3.342642 99.91523 17.10892 1.106346 2.995148 0.2216084 2.400169 -21.47028 3.757346 0 -1.539754 0 -5.546428 -7.398186 3.948826 -7.311333 11.71621 -18.35755 -0 10.52848 -0 3.360547 -20.65786 20.3124 -3.96875 -3.73587 5.029515 3.221372 8.320448 -7.538375 1.373449 21.31949 7.219253 3.800896 -24.14086 8.91382 5.318104 -17.71438 11.24009 87.21439 35.42343 -21.51892 -0 0 13.36979 -8.456588 9.17717 4.961083 7.591757 -20.98518 -1.107927 -92.30458 28.67631 18.57383 0 0 -21.10293 4.321269 16.4945 8.500276
3.800446 99.1628 21.07876 0.8689607 3.693033 0.825702 2.559241 -20.59786 3.080028 0 -4.457127 0 -5.984918 -6.746942 4.398418 -6.942087 11.93042 -17.14057 -0 13.5881 -0 1.654671 -20.03702 18.28048 -3.477814 -3.965488 4.710242 3.195376 8.1522 -7.838444 1.229241 21.22468 7.308502 3.793062 -24.03995 8.784212 5.237079 -17.2422 11.09536 87.77124 35.36195 -22.03843 -0 0 12.6468 -8.632063 9.482499 5.084269 7.289698 -21.00884 -1.250426 -91.97206 28.44651 18.3445 0 0 -20.67643 4.215631 16.14936 8.687309
4.227752 98.74608 25.62282 0.4665322 4.2394 1.597643 2.837865 -18.55687 2.693507 0 -5.167739 0 -6.616253 -6.541773 4.521614 -6.34488 11.7379 -15.93343 -0 18.0906 -0 -0.3871709 -18.13958 16.02502 -2.70595 -4.272579 4.357163 3.144054 8.005886 -8.165061 1.017985 21.13038 7.387138 3.732005 -23.89976 8.584546 5.197882 -16.74247 11.02556 88.34578 35.31799 -22.53824 -0 0 11.90209 -8.865674 9.835106 5.250727 6.73805 -20.84824 -1.482165 -91.82135 28.165 18.4368 0 0 -19.80394 4.037075 15.75646 8.986744
4.644293 98.75779 30.67323 0.01338608 4.406508 2.222976 3.23094 -15.47347 2.602031 0 -4.654211 0 -7.309685 -6.849215 4.498681 -5.753639 10.82831 -14.83225 -0 24.47056 -0 -2.504431 -14.74525 13.77146 -1.751412 -4.557797 4.190875 3.048671 7.973695 -8.315882 0.7544544 21.09196 7.42888 3.619356 -23.65486 8.2956 5.17556 -16.24661 11.1071 88.85686 35.30078 -22.89133 -0 0 11.2121 -9.184545 10.22726 5.478024 6.050252 -20.5282 -1.74314 -91.86125 27.82496 18.79131 0 0 -18.69232 3.80717 15.32949 9.340103
5.063878 99.19613 36.08356 -0.266037 3.988721 2.344526 3.575809 -11.38828 2.651606 0 -4.023719 0 -7.906582 -7.849015 4.491577 -5.397837 8.810758 -13.81409 -0 32.84997 -0 -4.306682 -10.21382 11.8377 -0.8543051 -4.670028 4.44148 2.888677 8.141189 -8.103343 0.4627453 21.18437 7.407568 3.474113 -23.27267 7.901309 5.219523 -15.81038 11.39461 89.20877 35.32447 -22.95684 -0 0 10.64476 -9.617248 10.65146 5.781052 5.339855 -20.16808 -1.953249 -91.99397 27.4307 19.26808 0 0 -17.59164 3.561398 14.89306 9.676415
5.498008 99.95761 41.64395 -0.1705519 2.963008 1.943105 3.614925 -6.232495 2.648573 0 -3.906827 0 -8.300222 -9.474196 4.591421 -5.191679 5.279569 -12.80818 -0 42.38208 -0 -5.46649 -5.660878 10.58931 -0.3143094 -4.534654 5.168222 2.652824 8.507162 -7.544855 0.2179968 21.46099 7.286875 3.347382 -22.73437 7.414669 5.349757 -15.55081 11.83609 89.23428 35.40062 -22.58596 -0 0 10.30105 -10.23336 11.08588 6.195182 4.670827 -19.86366 -2.076725 -92.11569 26.98421 19.76122 0 0 -16.68429 3.342782 14.46523 9.930386
5.933525 100.9116 47.10352 0.3272189 1.540046 1.330808 3.214895 -0.2481806 2.534407 0 -4.589222 0 -8.414198 -11.42799 4.835454 -5.044362 0.2521478 -11.78808 -0 51.45997 -0 -5.963751 -2.170595 10.13007 -0.2961012 -4.182732 6.251999 2.354539 8.946725 -6.790343 0.08783951 21.91125 7.044015 3.28159 -22.0358 6.861012 5.511831 -15.59882 12.31743 88.7758 35.52717 -21.64517 -0 0 10.30853 -11.11456 11.49945 6.755997 4.141992 -19.68376 -2.100519 -92.13608 26.48737 20.16753 0 0 -16.10986 3.197199 14.0544 10.05646
6.352009 101.9545 52.26893 1.165036 0.0280313 0.8494431 2.368741 6.087214 2.36853 0 -6.092198 0 -8.199789 -13.35021 5.22453 -4.920002 -5.920741 -10.81496 -0 58.33303 -0 -5.920178 -0.341368 10.34469 -0.7978701 -3.706405 7.486625 2.002353 9.315885 -6.001257 0.08620596 22.4664 6.694152 3.284322 -21.20462 6.274037 5.603736 -16.02297 12.71857 87.76873 35.67191 -20.07655 -0 0 10.77801 -12.32034 11.86086 7.484267 3.864786 -19.63745 -2.014855 -92.01922 25.94885 20.44135 0 0 -15.91557 3.142532 13.65853 10.05185
6.783208 102.9919 57.17118 2.264446 -1.38315 0.5187944 1.160637 12.39215 2.237276 0 -8.127239 0 -7.664284 -15.03765 5.725325 -4.698902 -12.83888 -9.985534 -0 61.84115 -0 -5.41673 -0.02777606 11.04006 -1.678683 -3.204168 8.684725 1.557611 9.597319 -5.241792 0.1479402 23.02467 6.312007 3.317065 -20.31936 5.705246 5.529993 -16.75369 12.96682 86.30753 35.76566 -17.97357 -0 0 11.74908 -13.85287 12.14916 8.37891 3.86557 -19.61714 -1.815946 -91.84178 25.39149 20.69428 0 0 -15.95694 3.126152 13.26491 9.982534
7.244409 103.775 61.92169 3.303799 -2.48586 0.2921886 -0.06232359 18.27519 2.171711 0 -10.29014 0 -6.876006 -16.51484 6.278845 -4.209302 -19.74699 -9.079444 -0 61.20942 -0 -4.756574 -0.4005517 12.23656 -2.612779 -2.832796 9.660671 1.060866 9.739792 -4.572319 0.2171466 23.46751 5.974911 3.342415 -19.45193 5.217785 5.228114 -17.7224 13.05815 84.49279 35.74381 -15.43542 -0 0 13.2455 -15.6673 12.34975 9.436775 4.0882 -19.51233 -1.561802 -91.70155 24.84092 21.01942 0 0 -16.05807 3.081695 12.86479 9.919955
7.76448 104.0443 66.62346 3.967798 -3.168854 0.1066144 -0.9376604 23.44232 2.123363 0 -12.17729 0 -5.929538 -17.9055 6.816535 -3.260637 -25.9301 -7.779518 -0 56.33103 -0 -4.183208 -0.746212 13.98642 -3.284933 -2.666093 10.30472 0.587739 9.740735 -4.0294 0.2498056 23.70595 5.739836 3.33026 -18.66504 4.855659 4.72722 -18.81586 13.03233 82.5011 35.56366 -12.64381 -0 0 15.16964 -17.64807 12.45556 10.6094 4.424387 -19.2905 -1.320166 -91.65127 24.32131 21.43261 0 0 -16.07573 2.966862 12.45747 9.922988
8.383846 103.6891 71.35239 4.111316 -3.441068 -0.09926669 -1.272953 27.75243 2.026707 0 -13.44332 0 -4.908702 -19.31145 7.286081 -1.779582 -30.87153 -5.928781 -0 47.97035 -0 -3.769805 -0.7635614 16.14523 -3.533221 -2.701815 10.60288 0.2019101 9.651775 -3.633375 0.2252101 23.70516 5.631935 3.268829 -18.01372 4.635852 4.129247 -19.90728 12.93394 80.54579 35.21788 -9.839849 -0 0 17.32186 -19.64809 12.47243 11.80825 4.752282 -18.97169 -1.140314 -91.69486 23.85162 21.91088 0 0 -15.9004 2.769004 12.0487 10.03102
9.126978 102.7788 76.19253 3.846959 -3.412888 -0.3430148 -1.200271 31.24226 1.903547 0 -13.82476 0 -3.85337 -20.70288 7.678952 -0.05077955 -34.34146 -3.810415 -0 37.85437 -0 -3.402813 -0.6225645 18.2149 -3.437486 -2.903969 10.63946 -0.07549697 9.537583 -3.400738 0.1679338 23.50111 5.633682 3.180438 -17.53763 4.549773 3.562925 -20.92839 12.78358 78.77844 34.73402 -7.244892 -0 0 19.46728 -21.54855 12.4234 12.93389 4.964374 -18.58201 -1.047721 -91.8031 23.44397 22.44019 0 0 -15.44729 2.496297 11.64662 10.26125
10.01585 101.5467 81.21405 3.430971 -3.276002 -0.6772794 -1.115347 34.062 1.90585 0 -13.06305 0 -2.752323 -21.85203 8.031517 1.266475 -36.54742 -2.144721 -0 27.87723 -0 -2.889887 -0.7910045 19.65137 -3.225931 -3.154312 10.59265 -0.2735609 9.440331 -3.288062 0.1373068 23.18102 5.700822 3.110292 -17.23686 4.578208 3.14017 -21.87628 12.61649 77.24699 34.15946 -5.012207 -0 0 21.3859 -23.28048 12.35298 13.9155 4.963456 -18.16957 -1.058587 -91.94828 23.1123 22.99519 0 0 -14.66408 2.142437 11.25 10.63213
11.05128 100.2955 86.52598 3.134965 -3.154671 -1.257796 -1.484486 36.25106 2.262944 0 -10.95772 0 -1.618926 -22.32086 8.333677 1.532498 -37.50998 -1.652238 -0 20.27906 -0 -2.234058 -1.305904 20.39829 -3.176457 -3.466462 10.65361 -0.4286332 9.39746 -3.209181 0.1814946 22.85265 5.79178 3.100457 -17.06655 4.693526 2.949556 -22.62749 12.4359 76.14047 33.56524 -3.395807 -0 0 22.86671 -24.77048 12.30215 14.69971 4.741672 -17.77668 -1.142113 -92.09933 22.86453 23.54424 0 0 -13.58312 1.706343 10.85811 11.1356
